<?xml version="1.0" encoding="UTF-8" standalone="no"?>
<svg
   xmlns:dc="http://purl.org/dc/elements/1.1/"
   xmlns:cc="http://creativecommons.org/ns#"
   xmlns:rdf="http://www.w3.org/1999/02/22-rdf-syntax-ns#"
   xmlns:svg="http://www.w3.org/2000/svg"
   xmlns="http://www.w3.org/2000/svg"
   xmlns:sodipodi="http://sodipodi.sourceforge.net/DTD/sodipodi-0.dtd"
   xmlns:inkscape="http://www.inkscape.org/namespaces/inkscape"
   id="svg8"
   version="1.1"
   viewBox="0 0 50 50"
   height="50mm"
   width="50mm"
   sodipodi:docname="vruler.svg"
   inkscape:export-filename="/home/pauek/Assignatures/Flutter/src/all_samples/assets/lamp/vruler.png"
   inkscape:export-xdpi="76"
   inkscape:export-ydpi="76"
   inkscape:version="0.92.4 (5da689c313, 2019-01-14)">
  <sodipodi:namedview
     pagecolor="#ffffff"
     bordercolor="#666666"
     borderopacity="1"
     objecttolerance="10"
     gridtolerance="10"
     guidetolerance="10"
     inkscape:pageopacity="0"
     inkscape:pageshadow="2"
     inkscape:window-width="1009"
     inkscape:window-height="808"
     id="namedview14"
     showgrid="false"
     inkscape:zoom="1.2488333"
     inkscape:cx="94.488189"
     inkscape:cy="94.488189"
     inkscape:window-x="214"
     inkscape:window-y="147"
     inkscape:window-maximized="0"
     inkscape:current-layer="svg8" />
  <defs
     id="defs2">
    <marker
       style="overflow:visible"
       id="TriangleOutS"
       refX="0.0"
       refY="0.0"
       orient="auto">
      <path
         transform="scale(0.2)"
         style="fill-rule:evenodd;stroke:#000000;stroke-width:1pt;stroke-opacity:1;fill:#000000;fill-opacity:1"
         d="M 5.77,0.0 L -2.88,5.0 L -2.88,-5.0 L 5.77,0.0 z "
         id="path1023" />
    </marker>
    <marker
       style="overflow:visible;"
       id="Arrow2Send"
       refX="0.0"
       refY="0.0"
       orient="auto">
      <path
         transform="scale(0.3) rotate(180) translate(-2.3,0)"
         d="M 8.7185878,4.0337352 L -2.2072895,0.016013256 L 8.7185884,-4.0017078 C 6.9730900,-1.6296469 6.9831476,1.6157441 8.7185878,4.0337352 z "
         style="fill-rule:evenodd;stroke-width:0.625;stroke-linejoin:round;stroke:#000000;stroke-opacity:1;fill:#000000;fill-opacity:1"
         id="path908" />
    </marker>
    <marker
       style="overflow:visible;"
       id="Arrow1Send"
       refX="0.0"
       refY="0.0"
       orient="auto">
      <path
         transform="scale(0.2) rotate(180) translate(6,0)"
         style="fill-rule:evenodd;stroke:#000000;stroke-width:1pt;stroke-opacity:1;fill:#000000;fill-opacity:1"
         d="M 0.0,0.0 L 5.0,-5.0 L -12.5,0.0 L 5.0,5.0 L 0.0,0.0 z "
         id="path890" />
    </marker>
  </defs>
  <metadata
     id="metadata5">
    <rdf:RDF>
      <cc:Work
         rdf:about="">
        <dc:format>image/svg+xml</dc:format>
        <dc:type
           rdf:resource="http://purl.org/dc/dcmitype/StillImage" />
        <dc:title />
      </cc:Work>
    </rdf:RDF>
  </metadata>
  <g
     transform="translate(0,-247)"
     id="layer1">
    <path
       id="path1378"
       d="m 36.58743,256.59943 -1.794206,2.71767 h 1.161687 v 31.05546 h 1.265555 V 259.3171 h 1.161169 z"
       style="fill:#000000;fill-opacity:1;fill-rule:evenodd;stroke:none;stroke-width:0.25300001pt;stroke-opacity:1" />
    <path
       id="path1374"
       d="m 17.964278,252.54954 c -0.829341,0 -1.497066,0.66772 -1.497066,1.49706 v 2.54507 h 10.933183 v 1.74614 H 16.467212 v 1.97042 h 7.548376 v 1.74822 h -7.548376 v 1.97042 h 10.933183 v 1.74615 H 16.467212 v 1.97094 h 7.548376 v 1.74614 h -7.548376 v 1.97249 h 10.933183 v 1.74615 H 16.467212 v 1.97094 h 7.548376 v 1.74563 h -7.548376 v 1.97094 h 10.933183 v 1.74614 H 16.467212 v 1.97249 h 7.548376 v 1.74615 h -7.548376 v 7.31015 c 0,0.82934 0.667725,1.49706 1.497066,1.49706 h 13.971755 c 0.829345,0 1.497068,-0.66772 1.497068,-1.49706 V 254.0466 c 0,-0.82934 -0.667723,-1.49706 -1.497068,-1.49706 z m 6.885368,33.91886 c 1.360979,0 2.480468,1.11742 2.480468,2.4784 0,1.36098 -1.119489,2.47891 -2.480468,2.47891 -1.360978,0 -2.478402,-1.11793 -2.478402,-2.47891 0,-1.36098 1.117424,-2.4784 2.478402,-2.4784 z m 0,1.36529 c -0.623277,0 -1.113111,0.48983 -1.113111,1.11311 0,0.62328 0.489834,1.11362 1.113111,1.11362 0.623278,0 1.115177,-0.49034 1.115177,-1.11362 0,-0.62328 -0.491899,-1.11311 -1.115177,-1.11311 z"
       style="fill:#000000;fill-opacity:1;fill-rule:evenodd;stroke:#000000;stroke-width:0.25300001pt;stroke-opacity:1" />
  </g>
</svg>
